<svg xmlns:xlink="http://www.w3.org/1999/xlink" xmlns="http://www.w3.org/2000/svg" width="445.149" height="48" viewBox="0 0 445.149 48">
  <g id="logo3" transform="translate(-5095 -8117)">
    <g id="logo3-2" data-name="logo3" transform="translate(5095 8117.454)">
      <rect id="Rectangle_3" data-name="Rectangle 3" width="133" height="48" transform="translate(0 -0.454)" fill="#125cab"/>
      <path id="Path_15" data-name="Path 15" d="M22.5-17.291V1.983a6.4,6.4,0,0,1-.776,3.15,7.218,7.218,0,0,1-2.2,2.409A10.83,10.83,0,0,1,16.06,9.1a17.383,17.383,0,0,1-4.525.55A13.168,13.168,0,0,1,4.11,7.828,7.89,7.89,0,0,1,.675,3.046l5.378-.873A4.842,4.842,0,0,0,7.838,4.867a6.067,6.067,0,0,0,3.7.987A5.987,5.987,0,0,0,15.259,4.79a3.807,3.807,0,0,0,1.4-3.237V-13.732H4.864v-3.559ZM28.343,9.194V-17.291H43.857a12.258,12.258,0,0,1,7.755,2.16A7.014,7.014,0,0,1,54.36-9.324a7.014,7.014,0,0,1-2.748,5.806,12.258,12.258,0,0,1-7.757,2.163H34.184V9.194ZM34.187-5.15H43.5A6.1,6.1,0,0,0,46.964-6,2.759,2.759,0,0,0,48.2-8.423v-1.8a2.759,2.759,0,0,0-1.241-2.426A6.1,6.1,0,0,0,43.5-13.5H34.187ZM57.925,9.194V-17.291H81.042V-13.5H63.769v7.362H79.438v3.8H63.769V5.4H81.042V9.194Zm51.044-3.986h-.207a5.473,5.473,0,0,1-3.077,3.181A14.874,14.874,0,0,1,99.041,9.65,19.121,19.121,0,0,1,93.1,8.758a13.5,13.5,0,0,1-4.732-2.617,11.8,11.8,0,0,1-3.1-4.288,14.7,14.7,0,0,1-1.112-5.9A14.309,14.309,0,0,1,85.285-9.91a11.836,11.836,0,0,1,3.206-4.307,13.965,13.965,0,0,1,4.965-2.637,21.916,21.916,0,0,1,6.464-.891,19.341,19.341,0,0,1,8.223,1.57,12.4,12.4,0,0,1,5.224,4.372l-4.758,2.044a7.672,7.672,0,0,0-3.206-3.029,11.539,11.539,0,0,0-5.482-1.162,10.984,10.984,0,0,0-6.9,2.019A6.8,6.8,0,0,0,90.4-6.216v4.343a6.8,6.8,0,0,0,2.617,5.715,10.984,10.984,0,0,0,6.9,2.013,15.89,15.89,0,0,0,3.252-.323,9.975,9.975,0,0,0,2.715-.954,5.606,5.606,0,0,0,1.862-1.57,3.565,3.565,0,0,0,.7-2.193V-1.241H101V-4.922h13.09V9.194h-5.121Z" transform="translate(9.794 28.218)" fill="#fff"/>
      <path id="Path_17" data-name="Path 17" d="M28.768-4.075a10.9,10.9,0,0,1-2.176,5.48,11.984,11.984,0,0,1-4.776,3.681A16.556,16.556,0,0,1,15.06,6.395,16.015,16.015,0,0,1,7.716,4.8,12.064,12.064,0,0,1,2.792.324,12.479,12.479,0,0,1,1.026-6.367a12.479,12.479,0,0,1,1.767-6.69,12.064,12.064,0,0,1,4.924-4.465,16.015,16.015,0,0,1,7.345-1.6,16.556,16.556,0,0,1,6.755,1.309,12.047,12.047,0,0,1,4.776,3.664,10.838,10.838,0,0,1,2.176,5.5h-5.6a6.3,6.3,0,0,0-1.407-2.994A7.077,7.077,0,0,0,18.986-13.6a10.521,10.521,0,0,0-3.959-.687,9.669,9.669,0,0,0-4.466.966,6.843,6.843,0,0,0-2.895,2.748,8.361,8.361,0,0,0-1.014,4.2,8.361,8.361,0,0,0,1.014,4.2,6.843,6.843,0,0,0,2.9,2.759,9.669,9.669,0,0,0,4.466.964A10.75,10.75,0,0,0,18.986.879a6.936,6.936,0,0,0,2.781-1.93,6.323,6.323,0,0,0,1.407-3.024ZM42.541,6.394a14.113,14.113,0,0,1-6.052-1.226,9.651,9.651,0,0,1-4.074-3.435A9.088,9.088,0,0,1,30.96-3.388,8.885,8.885,0,0,1,32.4-8.541a9.672,9.672,0,0,1,4.072-3.418,14.249,14.249,0,0,1,6.068-1.21,13.964,13.964,0,0,1,6.118,1.193A9.651,9.651,0,0,1,52.73-8.541a9.146,9.146,0,0,1,1.458,5.153,9.088,9.088,0,0,1-1.455,5.121,9.651,9.651,0,0,1-4.074,3.435,14.278,14.278,0,0,1-6.118,1.226Zm0-4.122a7.5,7.5,0,0,0,3.289-.72,5.1,5.1,0,0,0,2.109-1.93,5.5,5.5,0,0,0,.72-3.01,5.9,5.9,0,0,0-.735-3.025A4.954,4.954,0,0,0,45.83-8.36a7.5,7.5,0,0,0-3.289-.72,7.384,7.384,0,0,0-3.206.72,4.935,4.935,0,0,0-2.109,1.947,6.128,6.128,0,0,0-.769,3.025A6.063,6.063,0,0,0,37.224-.4a4.935,4.935,0,0,0,2.111,1.947,7.384,7.384,0,0,0,3.206.72ZM56.412-12.712h5.463l1.178,7.1V5.9H57.59V-6.431ZM69.694-13.2a8.1,8.1,0,0,1,4.253,1.064,6.882,6.882,0,0,1,2.7,3.027,10.816,10.816,0,0,1,.932,4.677V5.9H72.115V-3.62a5.758,5.758,0,0,0-1.1-3.812,3.949,3.949,0,0,0-3.185-1.29,4.57,4.57,0,0,0-2.552.7,4.52,4.52,0,0,0-1.651,1.947A7.066,7.066,0,0,0,63.055-3.1l-1.8-.949a12.593,12.593,0,0,1,1.5-4.973,8.561,8.561,0,0,1,2.961-3.108,7.524,7.524,0,0,1,3.974-1.08Zm14.493,0a8.187,8.187,0,0,1,4.269,1.064,6.852,6.852,0,0,1,2.715,3.027A10.815,10.815,0,0,1,92.1-4.435V5.9H86.641V-3.62a5.758,5.758,0,0,0-1.1-3.812,3.949,3.949,0,0,0-3.189-1.293,4.57,4.57,0,0,0-2.552.7,4.52,4.52,0,0,0-1.653,1.947A7.067,7.067,0,0,0,77.575-3.1l-1.8-.949a12.593,12.593,0,0,1,1.5-4.973,8.561,8.561,0,0,1,2.96-3.108,7.459,7.459,0,0,1,3.943-1.08Zm11.777.491h5.463v5.921l-.229.72v4.482l.229,1.341V11.3H95.964ZM99.53-3.388a14.7,14.7,0,0,1,1.946-5.186,9.987,9.987,0,0,1,3.5-3.419,9.265,9.265,0,0,1,4.7-1.209,9.312,9.312,0,0,1,4.826,1.227,8.6,8.6,0,0,1,3.254,3.435,10.791,10.791,0,0,1,1.178,5.153,10.717,10.717,0,0,1-1.178,5.121A8.6,8.6,0,0,1,114.5,5.167a9.311,9.311,0,0,1-4.826,1.226,9.151,9.151,0,0,1-4.694-1.21,10.223,10.223,0,0,1-3.485-3.419A14.5,14.5,0,0,1,99.53-3.388Zm13.871,0a6.067,6.067,0,0,0-.671-2.9,4.937,4.937,0,0,0-1.848-1.963,5.194,5.194,0,0,0-2.715-.7,6.3,6.3,0,0,0-2.912.7,7.513,7.513,0,0,0-2.4,1.963,9.737,9.737,0,0,0-1.619,2.9,9.517,9.517,0,0,0,1.62,2.879,7.607,7.607,0,0,0,2.405,1.947,6.3,6.3,0,0,0,2.912.7,5.194,5.194,0,0,0,2.715-.7A4.965,4.965,0,0,0,112.73-.509a5.97,5.97,0,0,0,.671-2.879Zm7.819-9.324h5.529l1.112,6.707V5.9H122.4V-6.6Zm15.7-.2V-8.2a15.423,15.423,0,0,0-1.7-.294,14.022,14.022,0,0,0-1.6-.1,6.237,6.237,0,0,0-2.944.687,4.863,4.863,0,0,0-2.061,2.126,7.8,7.8,0,0,0-.752,3.631l-1.145-1.374a19.826,19.826,0,0,1,.72-3.747,10.552,10.552,0,0,1,1.455-3.075A6.936,6.936,0,0,1,131.2-12.44a6.6,6.6,0,0,1,3.271-.768,9.9,9.9,0,0,1,1.26.082,11.737,11.737,0,0,1,1.193.212Zm12.432,19.3a13.68,13.68,0,0,1-5.9-1.226,9.856,9.856,0,0,1-4.089-3.452,9.075,9.075,0,0,1-1.489-5.169,9.16,9.16,0,0,1,1.424-5.1,9.63,9.63,0,0,1,3.91-3.418,12.625,12.625,0,0,1,5.658-1.227,10.441,10.441,0,0,1,5.562,1.424,9.422,9.422,0,0,1,3.583,4.008,13.747,13.747,0,0,1,1.26,6.085H142.257V-5.318h14.066L154.2-4.01a6.459,6.459,0,0,0-.8-2.781,4.634,4.634,0,0,0-1.815-1.767A5.538,5.538,0,0,0,148.9-9.18a5.946,5.946,0,0,0-2.9.67,4.732,4.732,0,0,0-1.9,1.865,5.618,5.618,0,0,0-.671,2.8,6.15,6.15,0,0,0,.851,3.3,5.372,5.372,0,0,0,2.486,2.094,9.8,9.8,0,0,0,3.959.72,15.36,15.36,0,0,0,4.22-.6,13.894,13.894,0,0,0,3.828-1.718V3.613a14.487,14.487,0,0,1-4.27,2.045,17.729,17.729,0,0,1-5.151.735Zm33.5-6.347a5.3,5.3,0,0,1-1.161,3.435,7.066,7.066,0,0,1-3.452,2.176,18.451,18.451,0,0,1-5.594.737,18.878,18.878,0,0,1-5.921-.835A9.046,9.046,0,0,1,162.8,3.187a5.538,5.538,0,0,1-1.5-3.566h5.562a2.84,2.84,0,0,0,.981,1.587,5.379,5.379,0,0,0,2.045,1.03,10.7,10.7,0,0,0,2.929.36,9.134,9.134,0,0,0,3.518-.523A1.687,1.687,0,0,0,177.525.5a1.238,1.238,0,0,0-.836-1.145,10.228,10.228,0,0,0-3.06-.589L170.161-1.5a16.308,16.308,0,0,1-4.94-1.047,5.586,5.586,0,0,1-2.6-1.979,4.766,4.766,0,0,1-.769-2.634,4.722,4.722,0,0,1,1.243-3.337,7.721,7.721,0,0,1,3.484-2.028,17.725,17.725,0,0,1,5.187-.687,16.312,16.312,0,0,1,5.365.818,9.672,9.672,0,0,1,3.778,2.257,5.439,5.439,0,0,1,1.62,3.337h-5.562a2.486,2.486,0,0,0-.735-1.292,4.511,4.511,0,0,0-1.75-1,9.369,9.369,0,0,0-2.977-.393A8.375,8.375,0,0,0,168.331-9a1.534,1.534,0,0,0-1.112,1.422,1.213,1.213,0,0,0,.687,1.064,6.644,6.644,0,0,0,2.552.573l4.515.36a16.03,16.03,0,0,1,4.744,1,4.973,4.973,0,0,1,2.437,1.914,5.193,5.193,0,0,1,.7,2.714Zm23.522,0a5.3,5.3,0,0,1-1.162,3.435,7.067,7.067,0,0,1-3.451,2.176,18.451,18.451,0,0,1-5.594.737,18.878,18.878,0,0,1-5.921-.835,9.046,9.046,0,0,1-3.926-2.372,5.538,5.538,0,0,1-1.5-3.566h5.562a2.84,2.84,0,0,0,.981,1.587,5.38,5.38,0,0,0,2.045,1.03,10.7,10.7,0,0,0,2.929.36,9.134,9.134,0,0,0,3.518-.523A1.687,1.687,0,0,0,201.046.5a1.238,1.238,0,0,0-.835-1.145,10.228,10.228,0,0,0-3.058-.589L193.685-1.5a16.308,16.308,0,0,1-4.94-1.047,5.586,5.586,0,0,1-2.6-1.979,4.766,4.766,0,0,1-.768-2.634,4.721,4.721,0,0,1,1.243-3.337,7.721,7.721,0,0,1,3.483-2.028,17.725,17.725,0,0,1,5.186-.687,16.312,16.312,0,0,1,5.365.818,9.672,9.672,0,0,1,3.779,2.257A5.439,5.439,0,0,1,206.05-6.8h-5.562a2.486,2.486,0,0,0-.737-1.292,4.511,4.511,0,0,0-1.75-1,9.37,9.37,0,0,0-2.977-.393A8.375,8.375,0,0,0,191.852-9a1.534,1.534,0,0,0-1.112,1.422,1.213,1.213,0,0,0,.687,1.064,6.644,6.644,0,0,0,2.552.573l4.515.36a16.03,16.03,0,0,1,4.744,1,4.973,4.973,0,0,1,2.438,1.914,5.194,5.194,0,0,1,.7,2.714ZM220.15,6.394a14.113,14.113,0,0,1-6.05-1.227,9.652,9.652,0,0,1-4.074-3.435,9.088,9.088,0,0,1-1.455-5.121,8.885,8.885,0,0,1,1.439-5.153,9.672,9.672,0,0,1,4.074-3.418,14.249,14.249,0,0,1,6.068-1.21,13.964,13.964,0,0,1,6.118,1.193,9.652,9.652,0,0,1,4.074,3.435A9.146,9.146,0,0,1,231.8-3.388a9.088,9.088,0,0,1-1.456,5.121,9.652,9.652,0,0,1-4.072,3.435,14.278,14.278,0,0,1-6.122,1.226Zm0-4.122a7.5,7.5,0,0,0,3.287-.72,5.1,5.1,0,0,0,2.111-1.93,5.5,5.5,0,0,0,.72-3.01,5.9,5.9,0,0,0-.735-3.025,4.954,4.954,0,0,0-2.094-1.947,7.5,7.5,0,0,0-3.287-.72,7.384,7.384,0,0,0-3.206.72,4.935,4.935,0,0,0-2.111,1.947,6.128,6.128,0,0,0-.768,3.027,6.063,6.063,0,0,0,.768,2.993,4.935,4.935,0,0,0,2.111,1.947,7.384,7.384,0,0,0,3.2.717Zm13.871-14.983h5.529L240.662-6V5.9H235.2V-6.6Zm15.7-.2V-8.2a15.422,15.422,0,0,0-1.7-.294,14.022,14.022,0,0,0-1.6-.1,6.237,6.237,0,0,0-2.944.687,4.863,4.863,0,0,0-2.061,2.126,7.8,7.8,0,0,0-.752,3.631l-1.145-1.374a19.823,19.823,0,0,1,.72-3.747,10.555,10.555,0,0,1,1.456-3.075A6.936,6.936,0,0,1,244-12.435a6.6,6.6,0,0,1,3.272-.769,9.9,9.9,0,0,1,1.26.082,11.737,11.737,0,0,1,1.193.213Z" transform="translate(141.644 29.429)" fill="#fff"/>
    </g>
    <g id="Group_2" data-name="Group 2" transform="translate(5163.15 7954.825) rotate(11)">
      <path id="Path_63" data-name="Path 63" d="M2.959-2.227l.668-.13a5.76,5.76,0,0,1,.974-.13q.807,0,.807.844a4.3,4.3,0,0,1-.093.807L5.2-.2l-.431.07A9.947,9.947,0,0,1,3.683.037q-.659,0-.659-.687a1.752,1.752,0,0,1,.037-.362l.046-.241a1.454,1.454,0,0,0,.037-.334,1.073,1.073,0,0,0-.185-.64ZM22.126-7.58a23.913,23.913,0,0,1-4.759,5.933A7.429,7.429,0,0,1,12.7.52,3.741,3.741,0,0,1,9.8-.7,4.548,4.548,0,0,1,8.684-3.887,6.147,6.147,0,0,1,10.6-8.382,6.179,6.179,0,0,1,15.113-10.3a3.3,3.3,0,0,1,1.721.4,1.182,1.182,0,0,1,.673,1.025q0,1.021-1.735,1.531a1.109,1.109,0,0,0,.093-.427q0-1.5-1.6-1.5a3.244,3.244,0,0,0-2.547,1.545,5.5,5.5,0,0,0-1.164,3.382,3.708,3.708,0,0,0,.775,2.435,2.489,2.489,0,0,0,2.018.942q3.414,0,8-7.079Zm7.375.742a3.249,3.249,0,0,1,.028.4,6.718,6.718,0,0,1-1.818,4.676A5.6,5.6,0,0,1,23.453.232,4.077,4.077,0,0,1,20.415-.96a4.222,4.222,0,0,1-1.174-3.094A5.243,5.243,0,0,1,20.758-7.8a4.79,4.79,0,0,1,3.576-1.586A2.9,2.9,0,0,1,25-9.3a1.529,1.529,0,0,1-.232-.705,1.4,1.4,0,0,1,.306-.854A5,5,0,0,1,28.841-8.54,5.624,5.624,0,0,0,32.053-7.5,4.725,4.725,0,0,0,34.4-8.229l.464.789A5.227,5.227,0,0,1,31.84-6.41a7.641,7.641,0,0,1-2.34-.427Zm-2.1-.788a4.278,4.278,0,0,1-1.419-.742,4.013,4.013,0,0,0-.789-.1,3.62,3.62,0,0,0-2.8,1.42,4.833,4.833,0,0,0-1.221,3.237,3.188,3.188,0,0,0,.738,2.166,2.4,2.4,0,0,0,1.9.85A3.276,3.276,0,0,0,26.5-2.38a6.316,6.316,0,0,0,1.133-3.771A4.633,4.633,0,0,0,27.4-7.626Zm7.988,4.365q3.34-7.037,5.9-7.037,1.123,0,1.123,1.62a21.824,21.824,0,0,1-.482,3.13l-.557,2.806a25.189,25.189,0,0,1,3.386-5.483Q46.517-10.3,47.8-10.3q1.41,0,1.41,1.65a19.24,19.24,0,0,1-.417,2.715L48.5-4.487a11.051,11.051,0,0,0-.26,1.937q0,1.112.789,1.112,1.781,0,5.474-6.606l.779.435Q51.257.232,48.251.232q-1.92,0-1.92-2.5A15.426,15.426,0,0,1,46.7-4.954l.26-1.28a12.074,12.074,0,0,0,.26-1.614.357.357,0,0,0-.1-.3.357.357,0,0,0-.3-.1q-1,0-3.59,3.98Q40.876-.641,40.876-.121a.9.9,0,0,0,.037.2q-.13.028-.455.121a1.4,1.4,0,0,1-.417.047q-.863,0-.863-.825a11.519,11.519,0,0,1,.278-1.51q.1-.454.2-.973l.39-1.965a21.034,21.034,0,0,0,.427-2.549q0-.621-.455-.621-1,0-2.95,3.586Q35.133-1.058,35.133-.372a.6.6,0,0,0,.148.38,2.353,2.353,0,0,1-.937.224q-.965,0-.965-1.039,0-.13.278-2.7l.213-1.976a18.116,18.116,0,0,0,.111-1.92,2.44,2.44,0,0,0-.455-1.633,5.329,5.329,0,0,1,1.521-.39q.816,0,.816.964,0,.343-.223,2.55Z" transform="translate(349.888 134.118) rotate(-12.007)" fill="#fff" stroke="#fff" stroke-width="0.2"/>
      <g id="Path_61" data-name="Path 61" transform="translate(364.339 139.211) rotate(-18)">
        <path id="Path_1" data-name="Path 1" d="M12.367,0c11.49,0,33.6,2.388,33.6,2.388S23.933.762,12.443.762,0,2.388,0,2.388.877,0,12.367,0Z" fill="#fff"/>
        <path id="Path_2" data-name="Path 2" d="M12.367,0c11.49,0,33.6,2.388,33.6,2.388S23.933.762,12.443.762,0,2.388,0,2.388.877,0,12.367,0Z" fill="#fff"/>
      </g>
    </g>
  </g>
</svg>